<?xml version="1.0" encoding="UTF-8"?>
<svg xmlns="http://www.w3.org/2000/svg" xmlns:xlink="http://www.w3.org/1999/xlink" width="71px" height="40px" viewBox="0 0 71 40" version="1.1">
<g id="surface1">
<path style=" stroke:none;fill-rule:nonzero;fill:rgb(0%,0%,0%);fill-opacity:1;" d="M 22.507812 22.480469 C 22.511719 22.101562 22.507812 21.753906 22.511719 21.40625 C 22.515625 21.195312 22.605469 21.035156 22.832031 21.03125 C 23.050781 21.03125 23.144531 21.195312 23.148438 21.378906 C 23.167969 22.074219 23.222656 22.769531 23.125 23.457031 C 23.007812 24.277344 22.339844 24.804688 21.449219 24.808594 C 19.921875 24.816406 18.398438 24.8125 16.871094 24.8125 C 16.550781 24.8125 16.449219 24.949219 16.527344 25.238281 C 16.546875 25.296875 16.5625 25.363281 16.625 25.371094 C 17.097656 25.414062 17.007812 25.777344 17.027344 26.074219 C 17.035156 26.214844 17.019531 26.351562 17.019531 26.492188 C 17.019531 26.605469 17.054688 26.699219 17.1875 26.710938 C 17.558594 26.75 17.613281 27.011719 17.613281 27.3125 C 17.617188 27.359375 17.613281 27.40625 17.617188 27.453125 C 17.617188 27.90625 17.617188 27.90625 18.085938 27.90625 C 18.433594 27.90625 18.78125 27.90625 19.128906 27.90625 C 19.363281 27.90625 19.597656 27.953125 19.609375 28.234375 C 19.621094 28.53125 19.382812 28.566406 19.148438 28.566406 C 16.015625 28.566406 12.882812 28.566406 9.753906 28.566406 C 9.507812 28.566406 9.289062 28.511719 9.296875 28.21875 C 9.308594 27.949219 9.539062 27.910156 9.757812 27.90625 C 10.183594 27.902344 10.609375 27.898438 11.039062 27.90625 C 11.257812 27.910156 11.359375 27.820312 11.347656 27.597656 C 11.335938 27.433594 11.351562 27.273438 11.34375 27.109375 C 11.335938 26.90625 11.421875 26.765625 11.621094 26.734375 C 11.816406 26.699219 11.855469 26.585938 11.851562 26.414062 C 11.847656 26.21875 11.851562 26.019531 11.855469 25.824219 C 11.863281 25.605469 11.945312 25.4375 12.179688 25.398438 C 12.441406 25.355469 12.386719 25.160156 12.382812 24.992188 C 12.371094 24.785156 12.207031 24.8125 12.070312 24.8125 C 10.546875 24.8125 9.019531 24.816406 7.496094 24.808594 C 6.671875 24.808594 6.097656 24.421875 5.855469 23.722656 C 5.765625 23.457031 5.757812 23.175781 5.757812 22.898438 C 5.753906 19.972656 5.75 17.042969 5.757812 14.117188 C 5.761719 12.808594 6.367188 12.214844 7.675781 12.214844 C 12.214844 12.214844 16.757812 12.214844 21.296875 12.214844 C 22.515625 12.214844 23.164062 12.859375 23.164062 14.078125 C 23.164062 14.296875 23.167969 14.519531 23.148438 14.738281 C 23.132812 14.929688 23.027344 15.074219 22.820312 15.070312 C 22.609375 15.0625 22.515625 14.917969 22.511719 14.71875 C 22.503906 14.453125 22.515625 14.1875 22.507812 13.921875 C 22.488281 13.285156 22.113281 12.910156 21.480469 12.910156 C 16.789062 12.910156 12.097656 12.910156 7.40625 12.914062 C 6.792969 12.914062 6.441406 13.273438 6.410156 13.921875 C 6.390625 14.3125 6.40625 14.707031 6.40625 15.101562 C 6.40625 17.53125 6.410156 19.960938 6.398438 22.390625 C 6.394531 22.734375 6.480469 22.851562 6.839844 22.851562 C 11.925781 22.839844 17.007812 22.84375 22.09375 22.847656 C 22.332031 22.847656 22.550781 22.847656 22.507812 22.480469 M 21.105469 24.144531 C 21.929688 24.144531 22.230469 24.003906 22.316406 23.582031 C 17.070312 23.582031 11.824219 23.582031 6.550781 23.582031 C 6.625 23.863281 6.804688 23.980469 7.011719 24.0625 C 7.207031 24.140625 7.417969 24.144531 7.625 24.144531 C 12.097656 24.140625 16.566406 24.144531 21.105469 24.144531 M 14.527344 27.90625 C 15.242188 27.90625 15.957031 27.902344 16.671875 27.902344 C 16.820312 27.902344 16.953125 27.882812 16.957031 27.683594 C 16.957031 27.523438 16.941406 27.386719 16.722656 27.382812 C 16.476562 27.378906 16.386719 27.207031 16.371094 26.992188 C 16.359375 26.796875 16.355469 26.597656 16.367188 26.402344 C 16.382812 26.148438 16.277344 26.054688 16.023438 26.058594 C 14.984375 26.070312 13.945312 26.066406 12.90625 26.058594 C 12.664062 26.058594 12.546875 26.117188 12.550781 26.390625 C 12.550781 26.65625 12.660156 26.722656 12.90625 26.71875 C 13.65625 26.707031 14.40625 26.714844 15.15625 26.714844 C 15.40625 26.71875 15.691406 26.71875 15.699219 27.050781 C 15.710938 27.394531 15.421875 27.386719 15.171875 27.386719 C 14.238281 27.386719 13.304688 27.386719 12.367188 27.386719 C 12.195312 27.386719 12.015625 27.359375 12.007812 27.632812 C 12.003906 27.921875 12.1875 27.90625 12.378906 27.90625 C 13.070312 27.90625 13.765625 27.90625 14.527344 27.90625 M 13.699219 24.8125 C 13.59375 24.8125 13.492188 24.816406 13.386719 24.8125 C 13.171875 24.796875 13.039062 24.847656 13.039062 25.109375 C 13.042969 25.386719 13.199219 25.40625 13.402344 25.386719 C 14.09375 25.3125 14.785156 25.414062 15.476562 25.386719 C 15.691406 25.378906 15.863281 25.390625 15.859375 25.089844 C 15.859375 24.808594 15.695312 24.8125 15.496094 24.8125 C 14.921875 24.816406 14.34375 24.8125 13.699219 24.8125 Z M 13.699219 24.8125 "/>
<path style=" stroke:none;fill-rule:nonzero;fill:rgb(0%,0%,0%);fill-opacity:1;" d="M 18.519531 22.171875 C 16.621094 22.019531 15.691406 20.757812 15.421875 19.644531 C 14.992188 17.890625 16.128906 16.128906 17.953125 15.738281 C 19.664062 15.371094 21.410156 16.539062 21.726562 18.269531 C 22.105469 20.332031 20.71875 22.035156 18.519531 22.171875 M 19.941406 16.726562 C 19.242188 16.289062 18.496094 16.214844 17.722656 16.476562 C 16.511719 16.886719 15.816406 18.125 16.046875 19.433594 C 16.246094 20.554688 17.421875 21.511719 18.585938 21.503906 C 19.675781 21.492188 20.699219 20.722656 21.027344 19.671875 C 21.363281 18.582031 20.953125 17.429688 19.941406 16.726562 Z M 19.941406 16.726562 "/>
<path style=" stroke:none;fill-rule:nonzero;fill:rgb(0%,0%,0%);fill-opacity:1;" d="M 44.433594 18.347656 C 45.214844 19.378906 45.984375 20.386719 46.753906 21.398438 C 46.78125 21.394531 46.8125 21.390625 46.84375 21.386719 C 46.84375 21.234375 46.847656 21.082031 46.84375 20.929688 C 46.828125 20.152344 46.804688 19.378906 46.796875 18.605469 C 46.792969 18.277344 46.683594 18.070312 46.324219 18.0625 C 46.183594 18.0625 46.070312 18.003906 46.082031 17.835938 C 46.089844 17.671875 46.203125 17.625 46.34375 17.625 C 46.816406 17.621094 47.292969 17.621094 47.765625 17.625 C 47.910156 17.625 48.015625 17.691406 48.019531 17.847656 C 48.023438 17.996094 47.910156 18.046875 47.789062 18.054688 C 47.390625 18.082031 47.304688 18.324219 47.304688 18.671875 C 47.308594 19.921875 47.308594 21.167969 47.292969 22.417969 C 47.289062 22.640625 47.421875 22.953125 47.105469 23.054688 C 46.792969 23.152344 46.675781 22.84375 46.527344 22.652344 C 45.652344 21.488281 44.785156 20.316406 43.914062 19.152344 C 43.839844 19.050781 43.757812 18.957031 43.675781 18.851562 C 43.589844 18.964844 43.625 19.070312 43.625 19.167969 C 43.625 20.148438 43.632812 21.132812 43.632812 22.117188 C 43.632812 22.410156 43.730469 22.609375 44.054688 22.636719 C 44.207031 22.648438 44.382812 22.679688 44.363281 22.882812 C 44.34375 23.082031 44.167969 23.078125 44.015625 23.078125 C 43.597656 23.078125 43.183594 23.074219 42.765625 23.074219 C 42.613281 23.074219 42.445312 23.089844 42.425781 22.878906 C 42.40625 22.6875 42.558594 22.65625 42.699219 22.640625 C 43 22.609375 43.113281 22.4375 43.117188 22.152344 C 43.132812 21.03125 43.160156 19.910156 43.167969 18.785156 C 43.171875 18.28125 43.101562 18.203125 42.628906 18.039062 C 42.503906 17.996094 42.375 17.957031 42.394531 17.789062 C 42.421875 17.609375 42.574219 17.59375 42.714844 17.59375 C 43.390625 17.578125 44 17.738281 44.433594 18.347656 Z M 44.433594 18.347656 "/>
<path style=" stroke:none;fill-rule:nonzero;fill:rgb(0%,0%,0%);fill-opacity:1;" d="M 7.394531 16.9375 C 7.398438 16.09375 7.394531 15.285156 7.398438 14.476562 C 7.398438 14.070312 7.5 13.957031 7.910156 13.957031 C 9.804688 13.953125 11.699219 13.953125 13.59375 13.957031 C 14.007812 13.957031 14.101562 14.0625 14.101562 14.476562 C 14.105469 15.402344 14.105469 16.328125 14.101562 17.253906 C 14.097656 17.640625 14.015625 17.726562 13.628906 17.730469 C 11.710938 17.734375 9.792969 17.730469 7.875 17.726562 C 7.445312 17.726562 7.398438 17.640625 7.394531 16.9375 M 12.375 17.070312 C 12.628906 17.070312 12.882812 17.066406 13.136719 17.074219 C 13.355469 17.082031 13.449219 16.996094 13.445312 16.769531 C 13.4375 16.15625 13.4375 15.546875 13.445312 14.933594 C 13.449219 14.699219 13.355469 14.605469 13.117188 14.605469 C 11.535156 14.613281 9.957031 14.613281 8.375 14.605469 C 8.132812 14.605469 8.054688 14.695312 8.058594 14.933594 C 8.066406 15.507812 8.078125 16.085938 8.054688 16.664062 C 8.042969 16.984375 8.152344 17.082031 8.46875 17.078125 C 9.746094 17.0625 11.027344 17.070312 12.375 17.070312 Z M 12.375 17.070312 "/>
<path style=" stroke:none;fill-rule:nonzero;fill:rgb(0%,0%,0%);fill-opacity:1;" d="M 55.742188 22.996094 C 55.683594 22.757812 55.566406 22.890625 55.476562 22.929688 C 54.691406 23.289062 54.011719 23.207031 53.460938 22.6875 C 52.859375 22.113281 52.652344 21.121094 52.964844 20.3125 C 53.238281 19.609375 53.96875 19.101562 54.695312 19.070312 C 55.160156 19.050781 55.582031 19.160156 55.957031 19.382812 C 56.09375 19.347656 56.113281 19.246094 56.164062 19.175781 C 56.238281 19.074219 56.300781 18.945312 56.460938 18.996094 C 56.617188 19.046875 56.605469 19.1875 56.605469 19.316406 C 56.605469 20.425781 56.605469 21.535156 56.605469 22.644531 C 56.605469 23.070312 56.605469 23.496094 56.609375 23.925781 C 56.613281 24.1875 56.675781 24.414062 57.003906 24.429688 C 57.117188 24.433594 57.210938 24.484375 57.210938 24.613281 C 57.210938 24.765625 57.105469 24.808594 56.976562 24.808594 C 56.457031 24.8125 55.9375 24.8125 55.421875 24.808594 C 55.292969 24.808594 55.1875 24.773438 55.179688 24.621094 C 55.175781 24.46875 55.28125 24.429688 55.40625 24.421875 C 55.675781 24.402344 55.75 24.226562 55.746094 23.992188 C 55.746094 23.667969 55.746094 23.34375 55.742188 22.996094 M 53.933594 22.050781 C 54.265625 22.625 54.925781 22.832031 55.464844 22.53125 C 55.648438 22.425781 55.753906 22.289062 55.75 22.0625 C 55.738281 21.4375 55.75 20.816406 55.742188 20.195312 C 55.738281 19.804688 55.484375 19.527344 55.097656 19.460938 C 54.582031 19.375 54.195312 19.558594 53.972656 20.050781 C 53.6875 20.6875 53.660156 21.34375 53.933594 22.050781 Z M 53.933594 22.050781 "/>
<path style=" stroke:none;fill-rule:nonzero;fill:rgb(0%,0%,0%);fill-opacity:1;" d="M 31.6875 22.796875 C 31.699219 23.027344 31.570312 23.078125 31.402344 23.078125 C 30.90625 23.078125 30.410156 23.074219 29.910156 23.078125 C 29.757812 23.078125 29.625 23.039062 29.613281 22.863281 C 29.601562 22.695312 29.734375 22.644531 29.867188 22.640625 C 30.152344 22.632812 30.300781 22.453125 30.402344 22.21875 C 30.917969 20.992188 31.429688 19.765625 31.945312 18.542969 C 32.050781 18.289062 31.980469 18.140625 31.722656 18.074219 C 31.679688 18.0625 31.632812 18.046875 31.589844 18.035156 C 31.460938 17.992188 31.34375 17.933594 31.378906 17.769531 C 31.410156 17.617188 31.542969 17.59375 31.675781 17.585938 C 32.324219 17.535156 32.769531 17.773438 33.039062 18.378906 C 33.398438 19.191406 33.722656 20.019531 34.058594 20.84375 C 34.246094 21.292969 34.429688 21.742188 34.609375 22.191406 C 34.699219 22.417969 34.828125 22.597656 35.089844 22.640625 C 35.230469 22.660156 35.328125 22.730469 35.308594 22.894531 C 35.285156 23.0625 35.15625 23.078125 35.023438 23.078125 C 34.449219 23.078125 33.871094 23.074219 33.292969 23.078125 C 33.136719 23.078125 33.011719 23.027344 33.007812 22.851562 C 33.007812 22.683594 33.144531 22.664062 33.273438 22.640625 C 33.683594 22.5625 33.722656 22.496094 33.597656 22.113281 C 33.347656 21.347656 33.347656 21.347656 32.550781 21.347656 C 32.214844 21.347656 31.878906 21.355469 31.542969 21.34375 C 31.359375 21.339844 31.234375 21.398438 31.175781 21.585938 C 31.152344 21.660156 31.113281 21.734375 31.089844 21.808594 C 31.023438 22.019531 30.890625 22.226562 30.949219 22.445312 C 31.03125 22.742188 31.324219 22.585938 31.511719 22.652344 C 31.582031 22.675781 31.640625 22.703125 31.6875 22.796875 M 32.34375 20.90625 C 32.566406 20.886719 32.800781 20.953125 33.066406 20.816406 C 32.824219 20.195312 32.582031 19.582031 32.3125 18.886719 C 31.996094 19.585938 31.730469 20.199219 31.519531 20.847656 C 31.792969 20.941406 32.039062 20.890625 32.34375 20.90625 Z M 32.34375 20.90625 "/>
<path style=" stroke:none;fill-rule:nonzero;fill:rgb(0%,0%,0%);fill-opacity:1;" d="M 50.429688 19.402344 C 50.285156 19.398438 50.171875 19.382812 50.058594 19.398438 C 49.640625 19.453125 49.457031 19.832031 49.671875 20.191406 C 49.824219 20.449219 49.726562 20.613281 49.417969 20.613281 C 49.152344 20.617188 48.972656 20.46875 48.902344 20.230469 C 48.804688 19.914062 48.820312 19.605469 49.101562 19.378906 C 49.296875 19.222656 49.527344 19.125 49.765625 19.097656 C 50.15625 19.050781 50.550781 19.035156 50.933594 19.148438 C 51.558594 19.335938 51.808594 19.65625 51.816406 20.308594 C 51.820312 20.910156 51.824219 21.511719 51.816406 22.113281 C 51.808594 22.417969 51.871094 22.664062 52.207031 22.757812 C 52.304688 22.785156 52.375 22.847656 52.351562 22.960938 C 52.328125 23.066406 52.238281 23.105469 52.144531 23.125 C 51.664062 23.226562 51.285156 23.070312 51.003906 22.613281 C 50.597656 23.007812 50.132812 23.183594 49.585938 23.148438 C 49.054688 23.117188 48.675781 22.828125 48.554688 22.332031 C 48.4375 21.851562 48.648438 21.417969 49.121094 21.152344 C 49.59375 20.886719 50.121094 20.867188 50.632812 20.832031 C 50.945312 20.808594 51.027344 20.6875 51.007812 20.402344 C 50.984375 19.980469 50.980469 19.550781 50.429688 19.402344 M 49.546875 22.414062 C 49.753906 22.675781 50.027344 22.664062 50.300781 22.570312 C 50.726562 22.421875 50.929688 22.082031 50.996094 21.65625 C 51.074219 21.183594 50.992188 21.109375 50.515625 21.195312 C 50.355469 21.222656 50.195312 21.253906 50.046875 21.304688 C 49.539062 21.480469 49.367188 21.835938 49.546875 22.414062 Z M 49.546875 22.414062 "/>
<path style=" stroke:none;fill-rule:nonzero;fill:rgb(0%,0%,0%);fill-opacity:1;" d="M 36.035156 18.75 C 36.035156 18.460938 36.027344 18.207031 36.039062 17.953125 C 36.046875 17.699219 35.984375 17.519531 35.691406 17.5 C 35.5625 17.492188 35.421875 17.449219 35.429688 17.28125 C 35.4375 17.121094 35.578125 17.085938 35.707031 17.070312 C 35.949219 17.046875 36.179688 16.964844 36.410156 16.898438 C 36.792969 16.789062 36.894531 16.859375 36.894531 17.265625 C 36.898438 18.539062 36.898438 19.8125 36.898438 21.085938 C 36.898438 21.476562 36.902344 21.871094 36.898438 22.265625 C 36.894531 22.507812 36.976562 22.667969 37.242188 22.6875 C 37.382812 22.699219 37.503906 22.742188 37.480469 22.914062 C 37.460938 23.0625 37.335938 23.074219 37.214844 23.074219 C 36.707031 23.074219 36.199219 23.074219 35.691406 23.074219 C 35.5625 23.074219 35.453125 23.039062 35.433594 22.894531 C 35.414062 22.742188 35.527344 22.699219 35.652344 22.691406 C 35.976562 22.671875 36.039062 22.464844 36.039062 22.1875 C 36.03125 21.054688 36.035156 19.917969 36.035156 18.75 Z M 36.035156 18.75 "/>
<path style=" stroke:none;fill-rule:nonzero;fill:rgb(0%,0%,0%);fill-opacity:1;" d="M 60.96875 20.160156 C 60.605469 21.046875 60.253906 21.914062 59.894531 22.777344 C 59.824219 22.9375 59.800781 23.144531 59.542969 23.144531 C 59.277344 23.140625 59.242188 22.933594 59.167969 22.757812 C 58.824219 21.898438 58.484375 21.039062 58.136719 20.183594 C 58.007812 19.867188 57.851562 19.574219 57.457031 19.523438 C 57.34375 19.507812 57.269531 19.421875 57.28125 19.300781 C 57.296875 19.167969 57.402344 19.15625 57.511719 19.140625 C 58.226562 19.054688 58.660156 19.28125 58.953125 19.945312 C 59.234375 20.589844 59.480469 21.246094 59.761719 21.945312 C 59.90625 21.769531 59.945312 21.59375 60.007812 21.429688 C 60.203125 20.921875 60.394531 20.414062 60.585938 19.90625 C 60.667969 19.699219 60.671875 19.539062 60.382812 19.53125 C 60.246094 19.527344 60.117188 19.488281 60.132812 19.320312 C 60.144531 19.148438 60.285156 19.144531 60.417969 19.144531 C 60.820312 19.144531 61.226562 19.144531 61.628906 19.144531 C 61.761719 19.144531 61.902344 19.152344 61.910156 19.324219 C 61.917969 19.492188 61.785156 19.527344 61.652344 19.53125 C 61.257812 19.542969 61.101562 19.816406 60.96875 20.160156 Z M 60.96875 20.160156 "/>
<path style=" stroke:none;fill-rule:nonzero;fill:rgb(0%,0%,0%);fill-opacity:1;" d="M 8.125 18.683594 C 9.878906 18.683594 11.597656 18.683594 13.320312 18.6875 C 13.492188 18.6875 13.664062 18.699219 13.835938 18.722656 C 14.007812 18.75 14.09375 18.863281 14.09375 19.039062 C 14.089844 19.203125 14 19.304688 13.847656 19.328125 C 13.699219 19.355469 13.550781 19.371094 13.398438 19.371094 C 11.632812 19.371094 9.867188 19.375 8.101562 19.367188 C 7.828125 19.363281 7.433594 19.441406 7.425781 19.03125 C 7.421875 18.605469 7.828125 18.722656 8.125 18.683594 Z M 8.125 18.683594 "/>
<path style=" stroke:none;fill-rule:nonzero;fill:rgb(0%,0%,0%);fill-opacity:1;" d="M 11.507812 19.9375 C 12.167969 19.9375 12.789062 19.933594 13.414062 19.9375 C 13.5625 19.941406 13.714844 19.949219 13.859375 19.984375 C 14.023438 20.027344 14.097656 20.152344 14.09375 20.324219 C 14.085938 20.484375 13.988281 20.582031 13.84375 20.617188 C 13.746094 20.644531 13.640625 20.644531 13.535156 20.644531 C 11.679688 20.644531 9.824219 20.644531 7.964844 20.640625 C 7.953125 20.640625 7.941406 20.640625 7.933594 20.640625 C 7.683594 20.648438 7.429688 20.613281 7.417969 20.3125 C 7.40625 20.003906 7.667969 19.972656 7.914062 19.972656 C 9.101562 19.960938 10.289062 19.949219 11.507812 19.9375 Z M 11.507812 19.9375 "/>
<path style=" stroke:none;fill-rule:nonzero;fill:rgb(0%,0%,0%);fill-opacity:1;" d="M 9.914062 21.898438 C 9.210938 21.898438 8.542969 21.898438 7.871094 21.898438 C 7.644531 21.902344 7.425781 21.871094 7.414062 21.597656 C 7.402344 21.300781 7.640625 21.246094 7.871094 21.246094 C 9.800781 21.242188 11.726562 21.242188 13.65625 21.246094 C 13.875 21.246094 14.089844 21.300781 14.089844 21.582031 C 14.09375 21.875 13.875 21.898438 13.65625 21.898438 C 12.421875 21.898438 11.183594 21.898438 9.914062 21.898438 Z M 9.914062 21.898438 "/>
<path style=" stroke:none;fill-rule:nonzero;fill:rgb(0%,0%,0%);fill-opacity:1;" d="M 62.167969 22.8125 C 62.796875 22.703125 62.777344 22.257812 62.761719 21.789062 C 62.742188 21.246094 62.75 20.703125 62.757812 20.160156 C 62.761719 19.882812 62.679688 19.683594 62.359375 19.671875 C 62.246094 19.664062 62.152344 19.609375 62.152344 19.484375 C 62.148438 19.359375 62.242188 19.3125 62.351562 19.285156 C 62.640625 19.210938 62.933594 19.148438 63.21875 19.058594 C 63.503906 18.964844 63.605469 19.074219 63.605469 19.347656 C 63.601562 20.238281 63.609375 21.128906 63.601562 22.015625 C 63.597656 22.363281 63.605469 22.679688 64.074219 22.703125 C 64.175781 22.707031 64.234375 22.789062 64.222656 22.898438 C 64.210938 23.003906 64.140625 23.070312 64.039062 23.070312 C 63.476562 23.074219 62.910156 23.078125 62.34375 23.070312 C 62.207031 23.066406 62.140625 22.976562 62.167969 22.8125 Z M 62.167969 22.8125 "/>
<path style=" stroke:none;fill-rule:nonzero;fill:rgb(0%,0%,0%);fill-opacity:1;" d="M 39.40625 22.378906 C 39.449219 22.617188 39.59375 22.679688 39.785156 22.695312 C 39.898438 22.703125 39.992188 22.757812 39.992188 22.882812 C 39.988281 23.027344 39.882812 23.074219 39.753906 23.074219 C 39.222656 23.074219 38.695312 23.074219 38.164062 23.070312 C 38.035156 23.070312 37.933594 23.011719 37.929688 22.871094 C 37.929688 22.738281 38.039062 22.699219 38.148438 22.695312 C 38.472656 22.6875 38.542969 22.492188 38.539062 22.210938 C 38.53125 21.507812 38.53125 20.800781 38.539062 20.097656 C 38.539062 19.847656 38.449219 19.699219 38.191406 19.675781 C 38.058594 19.664062 37.925781 19.632812 37.9375 19.464844 C 37.945312 19.324219 38.070312 19.300781 38.1875 19.273438 C 38.457031 19.214844 38.722656 19.140625 38.988281 19.066406 C 39.308594 18.980469 39.394531 19.042969 39.394531 19.40625 C 39.402344 20.386719 39.402344 21.367188 39.40625 22.378906 Z M 39.40625 22.378906 "/>
<path style=" stroke:none;fill-rule:nonzero;fill:rgb(0%,0%,0%);fill-opacity:1;" d="M 39.476562 17.421875 C 39.5625 17.65625 39.496094 17.832031 39.339844 17.976562 C 39.074219 18.21875 38.664062 18.1875 38.449219 17.914062 C 38.257812 17.671875 38.308594 17.375 38.566406 17.195312 C 38.898438 16.960938 39.230469 17.035156 39.476562 17.421875 Z M 39.476562 17.421875 "/>
<path style=" stroke:none;fill-rule:nonzero;fill:rgb(0%,0%,0%);fill-opacity:1;" d="M 63.679688 17.355469 C 63.808594 17.679688 63.707031 17.902344 63.449219 18.058594 C 63.175781 18.222656 62.820312 18.136719 62.652344 17.886719 C 62.496094 17.652344 62.542969 17.382812 62.765625 17.214844 C 63.078125 16.976562 63.394531 17.015625 63.679688 17.355469 Z M 63.679688 17.355469 "/>
<path style=" stroke:none;fill-rule:nonzero;fill:rgb(0%,0%,0%);fill-opacity:1;" d="M 22.707031 17.523438 C 22.507812 17.3125 22.429688 16.453125 22.566406 16.234375 C 22.699219 16.027344 23.003906 16.035156 23.09375 16.277344 C 23.222656 16.628906 23.210938 17.003906 23.097656 17.363281 C 23.050781 17.515625 22.90625 17.589844 22.707031 17.523438 Z M 22.707031 17.523438 "/>
<path style=" stroke:none;fill-rule:nonzero;fill:rgb(0%,0%,0%);fill-opacity:1;" d="M 22.507812 19.371094 C 22.511719 19.175781 22.503906 19.015625 22.515625 18.855469 C 22.527344 18.703125 22.613281 18.59375 22.769531 18.574219 C 22.9375 18.550781 23.070312 18.628906 23.113281 18.792969 C 23.203125 19.117188 23.191406 19.449219 23.121094 19.777344 C 23.085938 19.941406 22.964844 20.03125 22.789062 20.011719 C 22.613281 19.996094 22.53125 19.878906 22.515625 19.710938 C 22.503906 19.609375 22.507812 19.507812 22.507812 19.371094 Z M 22.507812 19.371094 "/>
<path style=" stroke:none;fill-rule:nonzero;fill:rgb(0%,0%,0%);fill-opacity:1;" d="M 18.851562 18.816406 C 19.097656 18.464844 19.332031 18.132812 19.566406 17.804688 C 19.691406 17.636719 19.839844 17.492188 20.058594 17.652344 C 20.253906 17.800781 20.234375 17.992188 20.109375 18.175781 C 19.621094 18.875 19.132812 19.578125 18.632812 20.273438 C 18.425781 20.558594 18.242188 20.550781 18.019531 20.28125 C 17.707031 19.894531 17.402344 19.5 17.101562 19.105469 C 16.960938 18.921875 16.859375 18.703125 17.089844 18.523438 C 17.3125 18.351562 17.464844 18.523438 17.613281 18.683594 C 17.84375 18.941406 18.003906 19.257812 18.296875 19.492188 C 18.550781 19.328125 18.664062 19.054688 18.851562 18.816406 Z M 18.851562 18.816406 "/>
</g>
</svg>
